<svg xmlns="http://www.w3.org/2000/svg" viewBox="0 0 32 32">
  <defs>
    <linearGradient id="grad" x1="0%" y1="0%" x2="100%" y2="100%">
      <stop offset="0%" style="stop-color:#6366f1"/>
      <stop offset="100%" style="stop-color:#8b5cf6"/>
    </linearGradient>
  </defs>
  <!-- Background circle -->
  <circle cx="16" cy="16" r="15" fill="url(#grad)"/>
  <!-- Ear shape -->
  <path d="M16 6c-4.4 0-8 3.6-8 8 0 3.5 2.2 6.5 5.3 7.6.5.2 1.1-.1 1.3-.6.2-.5-.1-1.1-.6-1.3C11.5 18.8 10 16.6 10 14c0-3.3 2.7-6 6-6s6 2.7 6 6c0 1.7-.7 3.2-1.8 4.3-.4.4-.4 1 0 1.4.4.4 1 .4 1.4 0C23.1 18.2 24 16.2 24 14c0-4.4-3.6-8-8-8z" fill="white"/>
  <!-- Inner ear detail -->
  <path d="M16 10c-2.2 0-4 1.8-4 4 0 1.5.8 2.8 2 3.5.5.3 1.1.1 1.4-.4.3-.5.1-1.1-.4-1.4-.5-.3-.9-.9-.9-1.6 0-1.1.9-2 2-2s2 .9 2 2c0 .4-.1.7-.3 1-.3.4-.2 1.1.2 1.4.4.3 1.1.2 1.4-.2.5-.6.7-1.4.7-2.2 0-2.2-1.8-4-4-4z" fill="white"/>
  <!-- Signal waves -->
  <path d="M24.5 8.5c.4-.4.4-1 0-1.4s-1-.4-1.4 0" stroke="white" stroke-width="1.5" fill="none" stroke-linecap="round"/>
  <path d="M26.5 6.5c.4-.4.4-1 0-1.4s-1-.4-1.4 0" stroke="white" stroke-width="1.5" fill="none" stroke-linecap="round"/>
</svg>
